<svg xmlns:dc="http://purl.org/dc/elements/1.1/" xmlns:cc="http://creativecommons.org/ns#" xmlns:rdf="http://www.w3.org/1999/02/22-rdf-syntax-ns#" xmlns:svg="http://www.w3.org/2000/svg" xmlns="http://www.w3.org/2000/svg" viewBox="0 0 24 24" width="150" height="150"><metadata><rdf:RDF><cc:Work><dc:format>image/svg+xml</dc:format><dc:type rdf:resource="http://purl.org/dc/dcmitype/StillImage"/><dc:title>Gridy Avatars</dc:title><dc:creator><cc:Agent><dc:title>Jan Forst</dc:title></cc:Agent></dc:creator><dc:source>https://github.com/darosh/gridy-avatars</dc:source><cc:license rdf:resource="https://github.com/darosh/gridy-avatars/blob/master/LICENSE"/></cc:Work></rdf:RDF></metadata><defs><clipPath id="clip-a-3141584246"><rect width="13" height="24" x="0" y="0"/></clipPath><clipPath id="clip-b-3141584246"><rect width="12" height="24" x="12" y="0"/></clipPath></defs><rect fill="#000000" width="24" height="24" x="0" y="0"/><g style="fill: #00acc1" clip-path="url(#clip-a-3141584246)"><path d="M 21.999999,17.773502 12,23.547005 2.0000006,17.773502 l 0,-11.5470044 L 12,0.4529953 21.999999,6.2264977 Z"/></g><g style="fill: #0097a7" clip-path="url(#clip-b-3141584246)"><path d="M 21.999999,17.773502 12,23.547005 2.0000006,17.773502 l 0,-11.5470044 L 12,0.4529953 21.999999,6.2264977 Z"/></g><g style="fill: #e57373" clip-path="url(#clip-a-3141584246)"><rect width="14" height="3" x="5" y="8" rx="1" ry="1"/></g><g style="fill: #ef5350" clip-path="url(#clip-b-3141584246)"><rect width="14" height="3" x="5" y="8" rx="1" ry="1"/></g><g style="fill: #e57373" clip-path="url(#clip-a-3141584246)"><path d="m 12,17 c 0.83,0 1.5,-0.67 1.5,-1.5 0,-0.83 -0.67,-1.5 -1.5,-1.5 -0.83,0 -1.5,0.67 -1.5,1.5 0,0.83 0.67,1.5 1.5,1.5 z"/></g><g style="fill: #ef5350" clip-path="url(#clip-b-3141584246)"><path d="m 12,17 c 0.83,0 1.5,-0.67 1.5,-1.5 0,-0.83 -0.67,-1.5 -1.5,-1.5 -0.83,0 -1.5,0.67 -1.5,1.5 0,0.83 0.67,1.5 1.5,1.5 z"/></g></svg>